#!OML:ASF H:\Terrain\Walking\May29\JustinRory\Justin.ASF
:FULLY-SPECIFIED
:DEGREES
241
root 11.2552 16.7062 12.9455 -310.306 -71.0287 323.892
lowerback 19.3891 0.0462215 -4.66754
upperback 6.64865 -0.993859 2.99574
thorax -3.52095 -0.70238 6.10371
lowerneck 0.205188 -17.651 -19.4958
upperneck 10.9772 -26.7925 22.9788
head 9.33774 -12.9351 7.4072
rclavicle 3.49861e-014 5.56597e-014
rhumerus -43.6276 -52.9636 -9.35046
rradius 30.0269
rwrist -49.9755
rhand -10.9785 -2.37601
rfingers 7.12502
rthumb 15.0412 -31.8096
lclavicle 3.49861e-014 5.56597e-014
lhumerus -37.5095 24.7212 50.2311
lradius 43.0813
lwrist -7.58213
lhand -6.395 28.2903
lfingers 7.12502
lthumb 19.4526 57.3373
rfemur -20.5407 -13.1624 10.7628
rtibia 38.4947
rfoot -11.2641 -4.2341
rtoes -26.2266
lfemur -40.1377 17.0491 -6.05863
ltibia 65.9692
lfoot -27.7882 -11.3749
ltoes -19.5706
242
root 11.2543 16.7431 12.9595 -311.976 -71.0246 325.352
lowerback 19.7481 -0.0165862 -4.74391
upperback 6.82257 -1.11357 3.07757
thorax -3.4984 -0.774676 6.27185
lowerneck -0.362258 -17.5394 -19.8677
upperneck 11.3234 -26.4747 22.4864
head 9.45105 -12.7528 7.30954
rclavicle 5.56597e-015 2.3059e-014
rhumerus -42.8112 -52.3291 -9.15324
rradius 29.4543
rwrist -48.1051
rhand -10.9457 -2.46613
rfingers 7.12502
rthumb 15.0728 -31.8974
lclavicle 5.56597e-015 2.3059e-014
lhumerus -37.4886 24.9064 50.1734
lradius 43.205
lwrist -7.65163
lhand -6.15558 28.1604
lfingers 7.12502
lthumb 19.6828 57.1839
rfemur -20.3022 -12.8356 10.7372
rtibia 39.2137
rfoot -11.1531 -2.2964
rtoes -27.5122
lfemur -40.4837 16.7257 -6.19583
ltibia 66.6209
lfoot -25.7792 -13.0101
ltoes -19.294
243
root 11.2458 16.7771 12.9702 -315.082 -71.1667 328.398
lowerback 19.9361 -0.142737 -5.24146
upperback 7.02816 -1.39327 2.9684
thorax -3.3205 -0.932041 6.50409
lowerneck -0.676145 -17.3241 -20.0361
upperneck 11.3356 -26.054 22.2952
head 9.40552 -12.5416 7.33685
rclavicle 2.22639e-014 4.13472e-014
rhumerus -42.2403 -51.5035 -9.21536
rradius 29.3026
rwrist -46.8778
rhand -10.6092 -2.48901
rfingers 7.12502
rthumb 15.3969 -31.8957
lclavicle 2.22639e-014 4.13472e-014
lhumerus -37.4881 24.9818 49.972
lradius 43.4108
lwrist -7.77016
lhand -6.06595 28.3277
lfingers 7.12502
lthumb 19.769 57.3424
rfemur -19.9205 -12.7381 10.1756
rtibia 39.5737
rfoot -11.3181 -1.96506
rtoes -28.5731
lfemur -41.0646 16.362 -6.94421
ltibia 67.3952
lfoot -23.6594 -14.4104
ltoes -21.1586
244
root 11.2315 16.8019 12.9746 -317.297 -70.9405 330.62
lowerback 19.9424 -0.321666 -5.25798
upperback 7.20998 -1.63972 2.87918
thorax -3.0931 -1.06926 6.46462
lowerneck -0.837549 -17.1308 -20.0974
upperneck 11.2927 -25.7485 22.3584
head 9.36925 -12.3879 7.42424
rclavicle -2.46493e-014 1.27222e-014
rhumerus -42.1602 -50.5436 -9.12265
rradius 29.3488
rwrist -46.1485
rhand -10.2212 -2.41034
rfingers 7.12502
rthumb 15.7706 -31.7879
lclavicle -2.46493e-014 1.27222e-014
lhumerus -37.3801 24.6012 49.7133
lradius 43.5907
lwrist -7.81081
lhand -5.61412 28.0101
lfingers 7.12502
lthumb 20.2033 56.9795
rfemur -19.5796 -12.0812 10.0375
rtibia 39.6303
rfoot -11.6868 -4.37763
rtoes -29.5546
lfemur -41.9395 16.2033 -7.21758
ltibia 68.3057
lfoot -21.3244 -16.0926
ltoes -21.9805
245
root 11.2187 16.8233 12.9774 -318.489 -70.6023 331.74
lowerback 20.0119 -0.48696 -4.92085
upperback 7.33072 -1.80179 2.84344
thorax -2.98965 -1.15443 6.26469
lowerneck -0.861344 -16.967 -20.1097
upperneck 11.247 -25.5039 22.39
head 9.30856 -12.2725 7.49293
rclavicle 5.88403e-014 -5.08889e-014
rhumerus -42.3829 -49.7933 -8.49789
rradius 29.1622
rwrist -45.0724
rhand -9.24496 -2.4076
rfingers 7.12502
rthumb 16.7106 -31.7084
lclavicle 5.88403e-014 -5.08889e-014
lhumerus -37.3109 24.0594 49.4022
lradius 43.7245
lwrist -7.47447
lhand -5.89204 27.9005
lfingers 7.12502
lthumb 19.9361 56.8979
rfemur -19.1616 -11.1299 10.1964
rtibia 39.4188
rfoot -12.0462 -7.3577
rtoes -29.9644
lfemur -42.8488 16.152 -7.02135
ltibia 69.3103
lfoot -18.6844 -17.9671
ltoes -19.843
246
root 11.204 16.8352 12.9783 -320.438 -70.4773 333.586
lowerback 20.0525 -0.59178 -4.92507
upperback 7.49965 -1.95321 2.71079
thorax -2.81209 -1.24125 6.15167
lowerneck -0.888041 -16.8251 -19.8753
upperneck 11.3059 -25.2527 22.117
head 9.19649 -12.1512 7.42768
rclavicle -3.49861e-014 -1.90833e-014
rhumerus -42.7761 -49.1551 -7.76614
rradius 29.0012
rwrist -44.2027
rhand -8.37944 -2.4724
rfingers 7.12502
rthumb 17.5437 -31.7008
lclavicle -3.49861e-014 -1.90833e-014
lhumerus -37.1625 23.7045 49.0626
lradius 43.8271
lwrist -7.13905
lhand -6.46168 28.2189
lfingers 7.12502
lthumb 19.3885 57.2723
rfemur -18.4974 -10.4665 9.83652
rtibia 38.9527
rfoot -12.5392 -8.78722
rtoes -30.1358
lfemur -43.6035 16.0468 -7.15844
ltibia 70.2787
lfoot -16.1858 -19.5612
ltoes -16.8625
247
root 11.1863 16.8385 12.982 -321.642 -70.2768 334.809
lowerback 19.8662 -0.806886 -4.73878
upperback 7.63467 -2.1986 2.58737
thorax -2.55114 -1.37155 5.94853
lowerneck -0.961813 -16.6395 -19.6451
upperneck 11.5531 -24.9273 21.6386
head 9.10838 -11.9937 7.30656
rclavicle -1.90833e-014 -3.57812e-014
rhumerus -42.7396 -48.4717 -7.51103
rradius 28.8457
rwrist -43.6404
rhand -8.52837 -1.59932
rfingers 7.12502
rthumb 17.4004 -30.8405
lclavicle -1.90833e-014 -3.57812e-014
lhumerus -37.3355 23.7506 48.3572
lradius 44.0103
lwrist -6.91875
lhand -5.90118 28.2457
lfingers 7.12502
lthumb 19.9273 57.244
rfemur -17.8648 -9.66757 9.58475
rtibia 38.3472
rfoot -13.3047 -9.52322
rtoes -30.0271
lfemur -44.4752 16.0586 -7.11942
ltibia 71.2187
lfoot -14.2611 -20.7264
ltoes -13.9878
248
root 11.1623 16.8347 12.9858 -321.708 -70.0502 334.817
lowerback 19.8114 -0.992967 -4.3909
upperback 7.64051 -2.37082 2.68275
thorax -2.50565 -1.4546 5.88421
lowerneck -0.929948 -16.3513 -19.9037
upperneck 11.8974 -24.514 21.3444
head 9.11319 -11.8116 7.34068
rclavicle 2.8625e-014 -6.20208e-014
rhumerus -42.2573 -47.2853 -7.43726
rradius 28.7322
rwrist -43.4285
rhand -8.02536 -2.94565
rfingers 7.12502
rthumb 17.8844 -32.1433
lclavicle 2.8625e-014 -6.20208e-014
lhumerus -37.9855 23.865 47.5887
lradius 44.2943
lwrist -6.6941
lhand -4.95459 28.3187
lfingers 7.12502
lthumb 20.837 57.2197
rfemur -17.2125 -8.5923 9.69569
rtibia 37.7504
rfoot -13.7985 -10.5685
rtoes -31.2559
lfemur -45.2366 16.3356 -6.66685
ltibia 72.128
lfoot -13.8157 -20.5996
ltoes -13.6433
249
root 11.1352 16.8121 12.9879 -321.057 -69.8048 333.926
lowerback 19.8441 -1.03885 -3.7878
upperback 7.69685 -2.32149 2.86954
thorax -2.48798 -1.42901 5.72923
lowerneck -1.06159 -16.1619 -20.1326
upperneck 12.3895 -24.2716 21.1518
head 9.24862 -11.6908 7.35374
rclavicle 4.29375e-014 7.95139e-015
rhumerus -42.0589 -45.8718 -7.10897
rradius 28.6798
rwrist -43.5
rhand -8.23344 -2.52137
rfingers 7.12502
rthumb 17.6842 -31.7372
lclavicle 4.29375e-014 7.95139e-015
lhumerus -38.3242 23.4478 47.1901
lradius 44.4832
lwrist -6.10859
lhand -4.94529 28.7178
lfingers 7.12502
lthumb 20.846 57.6179
rfemur -16.4682 -7.56818 10.0381
rtibia 37.1432
rfoot -13.8213 -11.4171
rtoes -33.1269
lfemur -45.7368 16.7902 -5.83606
ltibia 72.9697
lfoot -14.3811 -18.4794
ltoes -14.8265
250
root 11.1215 16.7786 13.005 -320.574 -69.7797 333.346
lowerback 19.7147 -1.11001 -3.05305
upperback 7.77171 -2.28705 2.76539
thorax -2.38504 -1.40398 5.17867
lowerneck -1.24025 -16.0611 -19.8889
upperneck 12.8351 -24.1589 20.9271
head 9.33856 -11.6146 7.25988
rclavicle -2.8625e-014 -1.51076e-014
rhumerus -42.061 -44.6848 -6.86084
rradius 28.4521
rwrist -43.2771
rhand -8.2708 -2.71584
rfingers 7.12502
rthumb 17.6483 -31.9349
lclavicle -2.8625e-014 -1.51076e-014
lhumerus -38.3773 22.9446 46.6873
lradius 44.5563
lwrist -5.00177
lhand -5.8508 28.7347
lfingers 7.12502
lthumb 19.9758 57.7279
rfemur -15.8803 -6.99024 9.95791
rtibia 36.4882
rfoot -13.7784 -11.1227
rtoes -34.1646
lfemur -46.3393 17.1843 -5.28175
ltibia 73.7568
lfoot -15.0347 -14.7917
ltoes -15.0143
251
root 11.1163 16.7458 13.0304 -320.116 -69.9645 332.839
lowerback 19.635 -1.14962 -2.44491
upperback 7.76642 -2.23422 2.60464
thorax -2.39048 -1.36393 4.64273
lowerneck -1.14678 -15.83 -19.6774
upperneck 13.1576 -23.9043 20.8037
head 9.32619 -11.493 7.25969
rclavicle 5.56597e-015 1.51076e-014
rhumerus -42.0017 -43.1275 -6.80584
rradius 28.4265
rwrist -43.409
rhand -8.5298 -2.5583
rfingers 7.12502
rthumb 17.399 -31.7996
lclavicle 5.56597e-015 1.51076e-014
lhumerus -38.6777 23.0865 45.8722
lradius 44.6329
lwrist -4.41071
lhand -6.33046 28.4713
lfingers 7.12502
lthumb 19.5147 57.5119
rfemur -15.3511 -6.58821 9.58223
rtibia 35.8162
rfoot -14.115 -10.0478
rtoes -35.1413
lfemur -46.8904 17.5673 -4.85778
ltibia 74.4138
lfoot -15.8173 -10.8951
ltoes -14.6079
252
root 11.1078 16.7124 13.0496 -318.421 -70.021 330.895
lowerback 19.6764 -1.10288 -1.61417
upperback 7.78763 -2.03068 2.67051
thorax -2.43807 -1.25319 4.19759
lowerneck -1.30031 -15.6174 -19.4752
upperneck 13.8377 -23.6452 20.4016
head 9.43952 -11.3542 7.14664
rclavicle 2.8625e-014 -4.77083e-015
rhumerus -42.0373 -41.8563 -6.36607
rradius 28.5234
rwrist -43.2675
rhand -8.733 -3.23917
rfingers 7.12502
rthumb 17.2034 -32.4976
lclavicle 2.8625e-014 -4.77083e-015
lhumerus -39.1251 23.3628 45.054
lradius 44.7963
lwrist -3.81453
lhand -6.43484 28.8189
lfingers 7.12502
lthumb 19.4143 57.8697
rfemur -14.8303 -6.03131 9.76977
rtibia 35.1587
rfoot -14.3552 -9.10526
rtoes -36.756
lfemur -47.1686 18.1927 -3.74624
ltibia 74.8603
lfoot -16.6629 -7.64823
ltoes -15.0845
253
root 11.0999 16.6771 13.0718 -316.539 -70.2457 328.685
lowerback 19.8061 -1.03317 -0.934765
upperback 7.84871 -1.82942 2.74575
thorax -2.47546 -1.14967 3.85186
lowerneck -1.71303 -15.4064 -19.4995
upperneck 14.7408 -23.3751 19.9929
head 9.70716 -11.1999 7.04447
rclavicle -2.62396e-014 -2.38542e-014
rhumerus -41.9035 -41.4768 -5.60849
rradius 28.2464
rwrist -42.0411
rhand -8.78155 -3.84858
rfingers 7.12502
rthumb 17.1567 -33.1111
lclavicle -2.62396e-014 -2.38542e-014
lhumerus -39.7654 23.7188 44.1748
lradius 44.9868
lwrist -2.88521
lhand -6.68721 29.469
lfingers 7.12502
lthumb 19.1716 58.544
rfemur -14.3984 -5.7011 9.90881
rtibia 34.5562
rfoot -14.1114 -8.09297
rtoes -38.9021
lfemur -47.1975 18.9276 -2.59062
ltibia 75.0232
lfoot -17.1709 -5.16815
ltoes -16.149
254
root 11.0964 16.6415 13.1023 -315.58 -70.9132 327.545
lowerback 19.9367 -0.940792 -0.850973
upperback 7.85493 -1.70426 2.64917
thorax -2.55087 -1.08645 3.67907
lowerneck -1.88029 -15.0003 -19.8079
upperneck 15.4341 -22.9106 20.0208
head 9.91917 -10.9772 7.19843
rclavicle -5.00937e-014 -1.43125e-014
rhumerus -41.5505 -41.1957 -5.03145
rradius 27.7949
rwrist -40.7512
rhand -8.6108 -3.91681
rfingers 7.12502
rthumb 17.321 -33.165
lclavicle -5.00937e-014 -1.43125e-014
lhumerus -40.681 24.2485 43.2112
lradius 45.2408
lwrist -2.14059
lhand -6.80054 30.0801
lfingers 7.12502
lthumb 19.0626 59.1659
rfemur -14.1512 -5.71794 9.33521
rtibia 34.0758
rfoot -13.9468 -6.55424
rtoes -39.968
lfemur -47.0514 19.3501 -2.01451
ltibia 74.8074
lfoot -17.5628 -3.64768
ltoes -16.9486
